<svg xmlns="http://www.w3.org/2000/svg" width="400" height="400" viewBox="0 0 400 400"><g fill-rule="evenodd"><path d="M284.782 43.868c-11.856 11.829-15.787 15.981-15.443 16.313.254.245 1.451.939 2.661 1.541a84.66 84.66 0 0 1 4 2.144c.99.576 2.61 1.499 3.6 2.051 1.962 1.092 12.476 8.044 12.8 8.463.11.142.83.691 1.6 1.22.77.529 1.49 1.061 1.6 1.183.11.122.83.704 1.6 1.295.77.59 2.3 1.884 3.4 2.876 3.866 3.487 1.808 4.834 19.22-12.574 8.459-8.457 15.376-15.467 15.371-15.578-.019-.418-2.652-3.047-4.191-4.186-.88-.65-2.304-1.865-3.164-2.7-.86-.834-1.732-1.516-1.939-1.516-.207 0-.88-.54-1.497-1.2-.617-.66-1.329-1.2-1.584-1.2-.255 0-.352-.18-.216-.4.136-.22-.051-.4-.416-.4s-1.167-.54-1.784-1.2c-.617-.66-1.369-1.2-1.672-1.2-.303 0-.811-.36-1.128-.8-.317-.44-.807-.8-1.088-.8-.282 0-.512-.18-.512-.4 0-.22-.204-.4-.453-.4-.249 0-.771-.366-1.159-.814-.388-.447-.885-.762-1.103-.7-.219.063-.779-.32-1.244-.85-.465-.53-.95-.86-1.077-.733-.362.361-1.753-.997-1.478-1.442.146-.237-.032-.29-.442-.133-.424.162-1.014-.041-1.541-.532-.47-.438-1.09-.796-1.378-.796-.289 0-.525-.264-.525-.587 0-.324-.231-.499-.514-.391-.283.109-.905-.167-1.383-.612-1.988-1.852-1.912-1.912-18.921 15.058M174.6 72.585c-4.229.821-5.45 1.462-8.406 4.413-2.215 2.212-3.649 4.474-4.438 7.002-.171.55-.412 4.78-.534 9.4l-.222 8.4-11.6.215c-6.38.118-11.96.37-12.4.559-3.408 1.465-4.296 2.01-6.032 3.705-2.783 2.716-3.169 3.284-4.518 6.64-.539 1.341-.603 8.802-.084 9.786.202.382.663 1.375 1.025 2.207 2.48 5.699 9.004 9.052 17.666 9.08 1.867.006 2.516.16 2.7.641.318.827.318 129.907 0 130.734-.179.468-.799.633-2.371.633-8.822 0-15.51 3.378-17.995 9.088-.362.832-.823 1.825-1.025 2.207-.519.984-.455 8.445.084 9.786.751 1.869 1.337 3.108 1.569 3.319.121.11.659.83 1.197 1.6 1.406 2.014 2.641 3.006 5.584 4.487l2.6 1.307 11 .112c6.05.061 11.405.201 11.9.31.896.198.9.234.9 8.063 0 8.019.148 9.081 1.751 12.521.91 1.955 5.039 6.332 6.649 7.048 2.398 1.067 3.091 1.305 4.6 1.58 2.765.505 7.959.085 8.433-.681.118-.191.564-.347.991-.347.427 0 .776-.18.776-.4 0-.22.291-.4.647-.4.934 0 5.567-4.864 6.353-6.67.367-.841.832-1.843 1.034-2.225.201-.382.366-4.56.366-9.285 0-8.085.046-8.616.774-9.006.901-.482 18.763-.569 19.51-.094.344.219.524 2.66.624 8.494.152 8.883.379 10.213 2.238 13.085 2.13 3.29 5.786 6.501 7.402 6.501.333 0 .701.156.819.347.474.767 5.673 1.186 8.433.679 4.319-.792 9.502-4.769 11.25-8.632 1.273-2.811 1.35-3.516 1.35-12.351 0-9.621.158-10.443 2.005-10.443 1.675 0 9.476-3.258 14.321-5.982 9.364-5.264 18.746-15.512 23.291-25.44 2.219-4.849 2.263-4.955 2.812-6.778.266-.88.624-2.05.797-2.6.174-.55.5-1.9.725-3l.862-4.2c.287-1.397.384-4.975.265-9.8-.195-7.953-.409-9.524-2.201-16.2-2.8-10.436-11.595-22.88-21.177-29.966-3.431-2.537-3.35-2.114-1.084-5.617 1.776-2.744 4.984-9.191 4.984-10.014 0-.228.165-.726.366-1.108.581-1.103 2.034-6.231 2.034-7.18 0-.475.194-1.37.431-1.989.554-1.451.593-15.811.047-17.934a123.45 123.45 0 0 1-.884-3.792c-1.306-6.039-5.954-16.371-8.781-19.518-.337-.376-1.148-1.403-1.802-2.282-1.71-2.301-6.613-7.037-9.517-9.193-1.372-1.018-2.811-2.112-3.199-2.429-.387-.318-.82-.578-.962-.578-.142 0-.836-.441-1.542-.98l-1.285-.98-.196-11.92c-.137-8.323-.349-12.282-.703-13.12-1.416-3.354-1.526-3.526-4.099-6.403-3.56-3.982-13.947-6.303-16.543-3.697-.164.165-.54.3-.836.3-1.744 0-6.006 4.013-7.953 7.488-1.332 2.377-1.474 3.384-1.733 12.312l-.243 8.4-9.75.107c-6.857.076-9.914-.028-10.3-.349-.435-.361-.55-2.243-.55-9.012 0-4.706-.165-8.869-.366-9.251a40.418 40.418 0 0 1-.976-2.095c-1.719-3.949-7.202-8.012-11.609-8.603-1.073-.144-2.153-.31-2.4-.37-.247-.06-1.529.101-2.849.358m166.83 19.391-15.591 15.576.58 1.124c.319.618.685 1.214.814 1.324 2.145 1.831 11.428 18.135 15.259 26.8.437.99.956 2.113 1.152 2.495.196.382.356.967.356 1.3 0 .333.18.605.4.605.22 0 .4.349.4.776 0 .427.18.888.4 1.024.22.136.4.599.4 1.029 0 .43.159 1.094.353 1.476 1.002 1.969 2.726 7.074 4.479 13.258l.839 2.962 17.189-17.162c18.529-18.5 18.306-18.254 17.336-19.224-.353-.353-.553-.874-.444-1.157.108-.284-.047-.61-.346-.724-.325-.125-.457-.541-.328-1.034.122-.469.023-.824-.231-.824-.246 0-.447-.338-.447-.751s-.259-.966-.576-1.229c-.317-.263-.478-.735-.357-1.049.12-.314.019-.571-.224-.571-.244 0-.443-.36-.443-.8 0-.44-.18-.8-.4-.8-.22 0-.4-.36-.4-.8 0-.44-.18-.8-.4-.8-.22 0-.4-.36-.4-.8 0-.44-.18-.8-.4-.8-.22 0-.4-.36-.4-.8 0-.44-.18-.8-.4-.8-.22 0-.4-.36-.4-.8 0-.44-.18-.8-.4-.8-.22 0-.4-.36-.4-.8 0-.44-.18-.8-.4-.8-.22 0-.4-.36-.4-.8 0-.44-.18-.8-.4-.8-.22 0-.4-.27-.4-.6 0-.33-.18-.6-.4-.6-.22 0-.4-.36-.4-.8 0-.44-.18-.8-.4-.8-.22 0-.4-.36-.4-.8 0-.44-.18-.8-.4-.8-.22 0-.4-.27-.4-.6 0-.33-.18-.6-.4-.6-.22 0-.4-.27-.4-.6 0-.33-.201-.6-.447-.6-.249 0-.354-.353-.237-.8.136-.52.012-.8-.353-.8-.31 0-.563-.197-.563-.438s-.372-.961-.827-1.6c-.455-.639-.68-1.168-.5-1.175.18-.007-.02-.275-.444-.596-.424-.32-.652-.702-.506-.847.145-.145-.193-.688-.752-1.206-.559-.518-.905-1.121-.77-1.34.135-.219.052-.398-.186-.398s-.649-.495-.914-1.1c-.266-.605-.802-1.391-1.192-1.747-.39-.356-.709-.851-.709-1.1 0-.249-.18-.453-.4-.453-.22 0-.4-.27-.4-.6 0-.33-.15-.6-.332-.6-.183 0-.587-.495-.898-1.1-.31-.605-.881-1.391-1.267-1.747-.387-.356-.703-.813-.703-1.016 0-.203-.72-1.165-1.6-2.137-.88-.972-1.6-2-1.6-2.284 0-1.316-1.973.478-16.57 15.06m-115.636 42.851c5.843 1.805 14.206 8.78 14.206 11.849 0 .205.36 1.119.8 2.03.44.91.8 2.078.8 2.595 0 .516.192 1.131.427 1.366.765.765.176 9.47-.806 11.933-2.629 6.588-6.486 10.894-12.099 13.508-4.555 2.121-4.179 2.092-27.522 2.092h-21.8l-.104-22.6c-.057-12.43-.018-22.825.088-23.1.38-.993 42.71-.692 46.01.327m11.886 78.135c9.198 2.437 19.52 11.749 19.52 17.61 0 .319.161.68.358.802 1.447.895 1.453 12.766.007 15.521-.201.382-.365.933-.365 1.224 0 3.008-6.685 11.443-11.011 13.894-3.391 1.921-4.092 2.254-5.789 2.747-.99.288-2.213.685-2.719.882-.511.199-13.611.358-29.5.358H179.6v-53.6h27.98c22.749 0 28.377.105 30.1.562m-189.1 67.222C27.729 301.319 26.408 302.8 28.4 302.8c.22 0 .4.27.4.6 0 .33.18.6.4.6.22 0 .4.32.4.712 0 .391.36.971.8 1.288.44.317.8.897.8 1.288 0 .392.158.712.351.712.194 0 .576.54.849 1.2.273.66.652 1.2.841 1.2.189 0 .457.45.595 1 .138.55.415 1 .616 1s.584.495.85 1.1c.267.605.803 1.335 1.192 1.623.388.287.706.748.706 1.024s.32.851.711 1.278c.391.426 1.147 1.405 1.681 2.175.533.77 1.294 1.691 1.689 2.047.395.356.719.829.719 1.052 0 .222.72 1.146 1.6 2.053.88.907 1.6 1.747 1.6 1.866s.675.946 1.5 1.838c.825.891 1.86 2.09 2.3 2.663.44.574 1.432 1.739 2.204 2.59l1.404 1.546 15.496-15.263c8.523-8.395 15.496-15.486 15.496-15.757 0-.271-1.125-1.848-2.5-3.505-1.375-1.657-2.95-3.608-3.5-4.335-.55-.727-1.225-1.55-1.5-1.83-.275-.279-.5-.701-.5-.936 0-.236-.135-.43-.3-.432-.165-.001-.748-.676-1.296-1.5-.548-.823-1.103-1.587-1.233-1.697-1.125-.954-8.117-12.384-11.079-18.111-.772-1.49-1.522-2.784-1.667-2.874-.146-.09-5.296 4.936-11.445 11.169m43.462 61.257C78.132 355.533 75.926 358 77.24 358c.241 0 .943.54 1.56 1.2.617.66 1.369 1.2 1.672 1.2.303 0 .811.36 1.128.8.317.44.807.8 1.088.8.282 0 .512.18.512.4 0 .22.268.4.597.4.328 0 .821.36 1.096.8.275.44.726.8 1.003.8.277 0 .831.315 1.23.7.399.385 1.381 1.039 2.181 1.453.801.414 1.817 1.089 2.258 1.5.441.411 1.039.747 1.33.747.291 0 .788.36 1.105.8.317.44.897.8 1.288.8.392 0 .712.18.712.4 0 .22.236.4.525.4.288 0 .911.36 1.383.8.472.44 1.136.8 1.475.8.339 0 .617.18.617.4 0 .22.27.4.6.4.33 0 .6.18.6.4 0 .22.36.4.8.4.44 0 .8.146.8.325 0 .179.63.573 1.4.875.77.302 1.4.696 1.4.875 0 .179.27.325.6.325.33 0 .6.18.6.4 0 .22.349.4.776.4.427 0 .888.18 1.024.4.136.22.597.4 1.024.4.427 0 .776.18.776.4 0 .22.27.4.6.4.33 0 .6.18.6.4 0 .22.36.4.8.4.44 0 .8.18.8.4 0 .22.36.4.8.4.44 0 .8.199.8.443 0 .243.272.338.605.21.599-.23 4.155 1.501 4.655 2.266.142.219.554.284.915.146.381-.146.743-.022.866.298.116.302.539.463.94.358.401-.105.85.005.997.244.148.239.554.435.902.435.347 0 .852.302 1.122.671.43.587 2.671-1.496 18.153-16.872 9.714-9.648 17.524-17.672 17.354-17.831-.17-.16-1.749-.687-3.509-1.172-3.451-.951-8.706-2.618-10-3.172-.44-.189-1.43-.56-2.2-.824-1.947-.669-2.065-.717-7.5-3.042-3.277-1.402-13.26-6.415-15.9-7.984-5.023-2.986-9.596-5.852-9.8-6.142-.433-.616-3.978-2.832-4.53-2.832-.322 0-7.445 6.948-15.828 15.441" fill="#fceb93"/><path d="M201.6.369c-.55.193-2.046.369-3.323.391-1.278.022-3.618.219-5.2.439-1.583.219-4.407.594-6.277.833-1.87.238-4.3.604-5.4.813-7.727 1.465-8.417 1.613-17.4 3.744-5.441 1.291-20.757 6.484-25.421 8.62-1.429.655-2.689 1.191-2.799 1.191-.234 0-6.824 3.079-10.58 4.944-3.832 1.902-8.528 4.487-12.6 6.936-1.98 1.191-3.958 2.38-4.396 2.642C103.133 33.966 88.526 44.674 86 47.2c-.11.11-1.73 1.528-3.6 3.151-10.199 8.852-24.685 25.11-31.407 35.249-.656.99-1.464 2.101-1.795 2.47-.331.368-1.346 1.898-2.256 3.4-6.973 11.504-7.313 12.103-10.967 19.33-6.256 12.375-12.185 28.415-15.154 41-.259 1.1-.632 2.63-.829 3.4-.665 2.606-2.016 9.872-3.014 16.2-2.271 14.407-2.671 39.326-.815 50.8.106.66.396 2.91.644 5s.604 4.61.792 5.6c.187.99.546 2.97.797 4.4 2.726 15.508 9.441 35.704 16.825 50.6 2.018 4.072 2.359 3.194-3.455 8.903-2.879 2.827-4.932 5.148-4.795 5.42.131.262.588 1.017 1.016 1.677.427.66 1.064 1.761 1.415 2.446.351.685.944 1.585 1.318 2 .374.415.935 1.249 1.248 1.854.312.605.717 1.1.9 1.1.182 0 .332.278.332.618 0 .34.45 1.068 1 1.618s1 1.164 1 1.364c0 .2.45.814 1 1.364.55.55 1 1.143 1.001 1.318 0 .175.54.948 1.199 1.718s1.199 1.559 1.199 1.753c.001.194.318.644.705 1 .388.356 1.233 1.367 1.879 2.247.646.88 1.279 1.69 1.406 1.8.128.11.857 1.01 1.62 2 .764.99 1.749 2.179 2.19 2.642.441.463 1.582 1.768 2.537 2.9 2.293 2.719 2.465 2.675 6.864-1.742 4.487-4.506 4.18-4.445 6.625-1.3 1.069 1.375 5.836 6.395 10.593 11.155l8.648 8.655-3.596 3.648c-1.979 2.007-3.523 3.699-3.434 3.76 1.044.715 5.143 3.846 5.738 4.382.427.385.931.7 1.12.7.188 0 .792.45 1.342 1s1.164 1 1.364 1c.2 0 .814.45 1.364 1 .55.55 1.278 1 1.618 1 .34 0 .618.18.618.4 0 .22.27.4.6.4.33 0 .6.18.6.4 0 .22.188.4.417.4.229 0 .772.331 1.206.736.435.405 1.282.983 1.884 1.286.601.302 1.588.883 2.193 1.291.605.408 1.105.594 1.112.414.007-.18.196-.012.42.373.224.385.571.7.77.7.199 0 1.026.45 1.836 1 .811.55 1.809 1 2.218 1 .409 0 .744.18.744.4 0 .22.36.4.8.4.44 0 .8.18.8.4 0 .22.27.4.6.4.33 0 .6.18.6.4 0 .22.27.4.6.4.33 0 .6-.18.6-.4 0-.22-.27-.4-.6-.4-.33 0-.6-.146-.6-.325 0-.179-.63-.573-1.4-.875-.77-.302-1.4-.696-1.4-.875 0-.179-.36-.325-.8-.325-.44 0-.8-.18-.8-.4 0-.22-.27-.4-.6-.4-.33 0-.6-.18-.6-.4 0-.22-.278-.4-.617-.4-.339 0-1.003-.36-1.475-.8-.472-.44-1.095-.8-1.383-.8-.289 0-.525-.18-.525-.4 0-.22-.32-.4-.712-.4-.391 0-.971-.36-1.288-.8-.317-.44-.814-.8-1.105-.8-.291 0-.889-.336-1.33-.747-.441-.411-1.457-1.086-2.258-1.5-.8-.414-1.782-1.068-2.181-1.453s-.953-.7-1.23-.7-.728-.36-1.003-.8c-.275-.44-.768-.8-1.096-.8-.329 0-.597-.18-.597-.4 0-.22-.23-.4-.512-.4-.281 0-.771-.36-1.088-.8-.317-.44-.825-.8-1.128-.8-.303 0-1.055-.54-1.672-1.2-.617-.66-1.319-1.2-1.56-1.2-.242 0-.44-.252-.44-.559 0-.753 30.326-31.441 31.07-31.441.552 0 4.097 2.216 4.53 2.832.204.29 4.777 3.156 9.8 6.142 2.655 1.578 12.555 6.548 16 8.032 4.486 1.932 5.486 2.337 7.4 2.994.77.264 1.76.635 2.2.824 1.294.554 6.549 2.221 10 3.172 1.76.485 3.339 1.012 3.509 1.172.17.159-7.64 8.183-17.354 17.831-15.482 15.376-17.723 17.459-18.153 16.872-.27-.369-.775-.671-1.122-.671-.348 0-.744-.18-.88-.4-.382-.618-1.4-.473-1.4.2 0 .333.356.6.8.6.44 0 .8.18.8.4 0 .22.324.4.72.4.396 0 .907.187 1.136.416.287.287 1.222-.411 3.034-2.268l2.618-2.683 1.346.538c.74.296 2.249.943 3.353 1.437 10.703 4.791 28.188 10.217 39.793 12.35 8.967 1.648 11.873 2.065 21.6 3.097 7.257.77 26.672.676 26.175-.127-.124-.2 1.019-.36 2.578-.36 1.54 0 2.911-.18 3.047-.4.136-.22 1.317-.4 2.624-.4 1.317 0 2.376-.178 2.376-.4 0-.22 1.001-.4 2.224-.4 1.229 0 2.123-.162 1.999-.363-.123-.2.721-.454 1.876-.566a39.118 39.118 0 0 0 4.101-.659c1.1-.251 2.587-.556 3.304-.678.717-.122 1.402-.383 1.523-.578.121-.196.829-.356 1.573-.356s1.464-.18 1.6-.4c.136-.22.867-.4 1.624-.4.757 0 1.376-.18 1.376-.4 0-.22.54-.4 1.2-.4.66 0 1.2-.18 1.2-.4 0-.22.529-.4 1.176-.4.647 0 1.278-.164 1.402-.364.124-.201.539-.314.924-.252.384.062 1.058-.083 1.498-.322.44-.238.89-.449 1-.467.443-.075 2.248-.666 3-.981.44-.185 1.88-.728 3.2-1.207 1.32-.479 2.713-1.037 3.095-1.239.382-.202.967-.368 1.3-.368.333 0 .605-.18.605-.4 0-.22.439-.4.976-.4.537 0 1.088-.18 1.224-.4.136-.22.597-.4 1.024-.4.427 0 .776-.18.776-.4 0-.22.36-.4.8-.4.44 0 .8-.18.8-.4 0-.22.343-.4.762-.4.816 0 4.15-1.601 4.371-2.1.074-.165.353-.3.621-.3.709 0 2.639-.949 2.643-1.3.002-.165.363-.3.803-.3.44 0 .8-.18.8-.4 0-.22.36-.4.8-.4.44 0 .8-.18.8-.4 0-.22.36-.4.8-.4.44 0 .8-.18.8-.4 0-.22.345-.4.767-.4.421 0 .826-.135.9-.3.231-.521 3.403-2.097 3.674-1.826.142.143.259.071.259-.159 0-.23.54-.642 1.2-.915.66-.273 1.2-.634 1.2-.802 0-.168.315-.408.7-.534.808-.264 4.203-2.235 4.5-2.612.11-.139.695-.508 1.3-.82.605-.312 1.1-.717 1.1-.9 0-.182.236-.332.525-.332.288 0 .873-.315 1.3-.7.426-.385 1.27-.955 1.875-1.268.605-.312 1.1-.717 1.1-.9 0-.182.345-.332.767-.332.421 0 .826-.135.9-.3.073-.165 1.123-1.11 2.333-2.1 1.21-.99 2.26-1.935 2.333-2.1.074-.165.389-.3.7-.3.312 0 .567-.18.567-.4 0-.22.203-.4.452-.4.248 0 1.193-.644 2.1-1.431 2.273-1.973 3.525-3 5.083-4.169 1.42-1.066 5.116-4.455 8.614-7.9 1.173-1.155 2.328-2.1 2.566-2.1s.355-.135.261-.3c-.225-.395 1.572-2.119 1.883-1.807.133.132.241-.07.241-.45s.18-.579.4-.443c.22.136.4.056.4-.177 0-.234.72-1.076 1.6-1.871.88-.795 1.6-1.585 1.6-1.756 0-.171 1.44-1.801 3.2-3.621 1.76-1.82 3.2-3.465 3.2-3.655 0-.191.616-.962 1.368-1.714 1.639-1.64 3.832-4.755 3.832-5.445 0-.272.111-.383.248-.247.286.286 1.352-.678 1.352-1.223 0-.202.36-.693.8-1.091.44-.398.8-.996.8-1.329 0-.332.119-.485.265-.34.288.289 2.135-2.227 2.135-2.91 0-.231.18-.421.4-.421.22 0 .4-.248.4-.551 0-.302.72-1.315 1.6-2.249.88-.934 1.604-1.902 1.609-2.149.005-.248.361-.901.791-1.451.43-.55.786-1.129.791-1.286.005-.158 1.042-1.868 2.305-3.8 1.263-1.933 2.298-3.634 2.3-3.781.002-.146.139-.401.304-.566.165-.165.3-.72.3-1.234 0-.513.18-.933.4-.933.22 0 .4-.27.4-.6 0-.33.18-.6.4-.6.22 0 .4-.27.4-.6 0-.33.18-.6.4-.6.22 0 .4-.36.4-.8 0-.44.18-.8.4-.8.22 0 .4-.36.4-.8 0-.44.18-.8.4-.8.22 0 .4-.36.4-.8 0-.44.18-.8.4-.8.22 0 .4-.36.4-.8 0-.44.18-.8.4-.8.22 0 .4-.371.4-.824 0-.453.18-.712.4-.576.22.136.4-.113.4-.553 0-.44.18-.911.4-1.047.22-.136.4-.687.4-1.224 0-.537.18-.976.4-.976.22 0 .4-.36.4-.8 0-.44.18-.8.4-.8.22 0 .4-.265.4-.588 0-.323.36-1.229.8-2.012.44-.783.8-1.779.8-2.212 0-.433.18-.788.4-.788.22 0 .4-.45.4-1s.18-1 .4-1c.22 0 .4-.45.4-1s.18-1 .4-1c.22 0 .4-.326.4-.725 0-.399.36-1.47.8-2.381.44-.91.8-1.988.8-2.395 0-.406.216-.955.48-1.219.264-.264.349-.48.19-.48-.16 0-.041-.495.265-1.1.305-.605.48-1.309.389-1.563a.639.639 0 0 1 .255-.724c.231-.143.421-.79.421-1.437s.18-1.176.4-1.176c.22 0 .4-.709.4-1.576 0-.867.18-1.688.4-1.824.22-.136.4-.766.4-1.4 0-.634.18-1.264.4-1.4.22-.136.4-.687.4-1.224 0-.537.162-.976.36-.976.198 0 .459-.765.581-1.7.425-3.26.75-4.709 1.103-4.927.196-.121.356-1.009.356-1.973 0-.964.18-1.864.4-2 .22-.136.4-1.137.4-2.224 0-1.087.18-1.976.4-1.976.222 0 .4-1.059.4-2.376 0-1.307.18-2.488.4-2.624.22-.136.4-1.317.4-2.624 0-1.631.157-2.378.5-2.382.347-.004.324-.117-.074-.37-.491-.31-.494-.461-.02-1.031.886-1.068.834-47.793-.054-47.793-.194 0-.352-1.249-.352-2.776 0-1.527-.18-2.888-.4-3.024-.22-.136-.4-1.035-.4-1.998 0-.962-.172-2.203-.383-2.756-.21-.554-.426-1.747-.479-2.652-.054-.905-.242-1.734-.418-1.843-.176-.109-.32-.717-.32-1.351s-.18-1.264-.4-1.4c-.22-.136-.4-1.126-.4-2.2 0-1.074-.18-2.064-.4-2.2-.22-.136-.4-.867-.4-1.624 0-.757-.18-1.376-.4-1.376-.22 0-.4-.54-.4-1.2 0-.66-.18-1.2-.4-1.2-.22 0-.4-.63-.4-1.4 0-.77-.18-1.4-.4-1.4-.22 0-.4-.72-.4-1.6 0-.88-.18-1.6-.4-1.6-.22 0-.4-.529-.4-1.176 0-.647-.19-1.294-.421-1.437a.639.639 0 0 1-.255-.724c.091-.254-.083-.956-.387-1.559s-.547-1.233-.539-1.4c.029-.643-1.333-4.54-1.657-4.74-.187-.116-.341-.651-.341-1.188 0-.537-.18-.976-.4-.976-.22 0-.4-.363-.4-.806 0-1.398-.973-3.994-1.497-3.994-.685 0-.632.613.116 1.362.944.944 1.104.766-17.359 19.201l-17.189 17.162-.839-2.962c-1.753-6.184-3.477-11.289-4.479-13.258a3.88 3.88 0 0 1-.353-1.476c0-.43-.18-.893-.4-1.029-.22-.136-.4-.597-.4-1.024 0-.427-.18-.776-.4-.776-.22 0-.4-.349-.4-.776 0-.427-.178-.887-.395-1.021-.461-.285-.24.477.838 2.893.416.932.757 1.957.757 2.276 0 .319.144.67.321.779.176.109.572 1.121.879 2.249.307 1.128.703 2.14.879 2.249.177.109.321.55.321.98 0 .43.162 1.094.361 1.476.199.382.583 1.505.854 2.495.9 3.286 1.161 4.18 1.926 6.6.418 1.32.977 3.48 1.243 4.8.266 1.32.577 2.76.691 3.2.513 1.988 1.506 8.566 2.203 14.6.646 5.6.641 26.581-.008 32-1.004 8.372-1.642 12.311-2.917 18-.682 3.044-1.814 7.458-2.358 9.2-.172.55-.626 2.08-1.008 3.4-.983 3.394-4.45 12.715-5.876 15.8-1.774 3.836-5.422 11.222-6.218 12.593-5.224 8.989-10.955 17.673-13.493 20.444-.22.24-.85 1.043-1.4 1.783a55.553 55.553 0 0 1-2.232 2.764c-.677.779-1.757 2.046-2.4 2.816-8.401 10.068-23.87 22.948-36.775 30.618-6.084 3.616-6.089 3.619-10.793 5.929-7.192 3.532-9.328 4.466-15 6.557-7.972 2.938-15.071 4.971-23.4 6.702-18.37 3.816-42.675 3.897-60 .199-.88-.188-2.68-.546-4-.796a51.948 51.948 0 0 1-4.8-1.2c-1.32-.41-3.75-1.147-5.4-1.636-5.235-1.554-10.144-3.205-11.896-4.002-.932-.424-1.88-.771-2.105-.771-.225 0-.722-.169-1.104-.376-.382-.207-1.505-.698-2.495-1.091-3.033-1.205-16.097-7.776-17.872-8.989-.92-.629-1.789-1.144-1.932-1.144-.29 0-15.08-9.962-15.396-10.37-.11-.143-1.55-1.353-3.2-2.69-5.487-4.445-14.799-13.503-16.947-16.483-.469-.651-2.208-2.775-3.865-4.721-1.656-1.945-3.448-4.166-3.981-4.936-.532-.77-1.083-1.49-1.223-1.6-.447-.35-6.592-9.685-8.427-12.8-2.002-3.398-2.607-4.488-4.223-7.6-.629-1.21-1.456-2.645-1.839-3.189-.382-.544-1.526-2.974-2.541-5.4a2758.753 2758.753 0 0 0-2.353-5.611c-.279-.66-.726-1.83-.994-2.6s-.641-1.76-.829-2.2c-.188-.44-.913-2.6-1.611-4.8-.698-2.2-1.413-4.36-1.588-4.8-.175-.44-.43-1.34-.567-2-.136-.66-.43-1.92-.652-2.8-.381-1.508-.543-2.218-1.581-6.9-4.057-18.298-4.048-43.179.023-62.6.918-4.38 1.621-7.345 2.394-10.1l.783-2.8c2.517-9.039 9.43-25.153 14.113-32.893.829-1.371 1.508-2.591 1.508-2.712 0-.548 10.189-15.283 11.199-16.195.122-.11.847-1.01 1.61-2 .764-.99 1.749-2.197 2.19-2.682 5.386-5.932 9.127-9.791 12.716-13.118 5.821-5.397 5.834-5.409 7.885-6.991.99-.763 1.89-1.488 2-1.61.926-1.025 14.872-10.65 16.4-11.318.33-.145 1.5-.802 2.6-1.46 7.807-4.674 24.171-11.67 32.9-14.064a406.11 406.11 0 0 0 2.8-.784c5.221-1.484 13.952-3.294 19.3-4 8.182-1.08 13.156-1.368 23.2-1.342 12.763.031 20.36.765 30.6 2.954 1.1.235 2.769.539 3.709.674.94.136 1.806.403 1.924.594.118.191.645.347 1.172.347.526 0 1.371.161 1.876.358.506.197 1.729.584 2.719.859 7.568 2.103 17.43 5.854 23.7 9.012 1.485.748 2.7 1.198 2.7.999 0-.199-.178-.421-.395-.495-.217-.073 6.778-7.288 15.544-16.033 17.032-16.992 16.968-16.94 18.943-15.1.935.871 1.508 1.025 1.508.405 0-.551-3.721-2.822-4.867-2.97-.146-.019-.401-.17-.566-.335-.165-.165-.63-.3-1.034-.3-.403 0-.733-.18-.733-.4 0-.22-.236-.4-.525-.4-.288 0-.911-.36-1.383-.8-.472-.44-1.136-.8-1.475-.8-.339 0-.617-.18-.617-.4 0-.22-.278-.4-.617-.4-.339 0-1.003-.36-1.475-.8-.472-.44-1.275-.8-1.783-.8-.509 0-.926-.135-.928-.3-.004-.359-1.941-1.3-2.677-1.3-.286 0-.52-.146-.52-.325 0-.179-.63-.573-1.4-.875-.77-.302-1.4-.696-1.4-.875 0-.179-.54-.325-1.2-.325-.66 0-1.2-.18-1.2-.4 0-.22-.36-.4-.8-.4-.44 0-.8-.18-.8-.4 0-.22-.45-.4-1-.4s-1-.18-1-.4c0-.22-.355-.4-.788-.4-.433 0-1.429-.36-2.212-.8-.783-.44-1.632-.8-1.885-.8-.687 0-6.875-2.545-7.169-2.948-.139-.192-.499-.262-.8-.156-.3.107-1.057-.064-1.682-.38s-1.39-.477-1.7-.357c-.31.119-.564.042-.564-.172 0-.213-.54-.387-1.2-.387-.66 0-1.2-.18-1.2-.4 0-.22-.529-.4-1.176-.4-.647 0-1.288-.18-1.424-.4-.136-.22-.766-.4-1.4-.4-.634 0-1.264-.18-1.4-.4-.136-.22-.766-.4-1.4-.4-.634 0-1.264-.18-1.4-.4-.136-.22-.921-.4-1.744-.4s-1.667-.17-1.876-.379c-.209-.208-1.145-.423-2.08-.478-.935-.055-1.7-.244-1.7-.421s-.9-.322-2-.322-2-.162-2-.36c0-.198-.765-.461-1.7-.585-.935-.124-2.87-.421-4.3-.66a79.661 79.661 0 0 0-4.8-.636c-1.21-.11-2.47-.308-2.8-.44-1.218-.487-2.002-.533-12-.715-5.61-.102-10.65-.028-11.2.165m104 29.431c0 .33.236.6.525.6.288 0 .911.36 1.383.8.968.902 1.292.995 1.292.371 0-.637-1.053-1.571-1.771-1.571-.346 0-.629-.18-.629-.4 0-.22-.18-.4-.4-.4-.22 0-.4.27-.4.6m3.844 2.129c-.112.18.142.623.563.984.926.793 1.51.147.647-.716-.68-.681-.922-.734-1.21-.268m2.156 1.488c0 .589 1.539 1.806 1.783 1.41.148-.238-.001-.702-.329-1.03-.584-.584-1.454-.811-1.454-.38m2.4 1.612c0 .392 1.122 1.371 1.571 1.371.236 0 .429.18.429.4 0 .22.23.4.512.4.281 0 .771.36 1.088.8.54.749 1.6 1.111 1.6.547 0-.385-2.143-2.146-2.612-2.147-.226 0-.671-.36-.988-.8-.528-.732-1.6-1.115-1.6-.571m5.6 3.989c0 .393 1.953 2.182 2.382 2.182.23 0 .418-.103.418-.229 0-.392-1.122-1.371-1.571-1.371-.236 0-.429-.18-.429-.4 0-.22-.18-.4-.4-.4-.22 0-.4.098-.4.218m3 2.582c-.136.22-.039.4.216.4s.967.54 1.584 1.2c.617.66 1.29 1.2 1.497 1.2.207 0 1.079.682 1.939 1.516.86.835 2.284 2.05 3.164 2.7 1.682 1.245 1.812 1.364 3.383 3.117l.984 1.096-15.382 15.386c-8.459 8.462-15.566 15.385-15.792 15.385-.226 0-1.082-.553-1.902-1.229-.82-.676-1.484-1.081-1.476-.9.008.181 1.183 1.229 2.612 2.329 4.042 3.112 14.666 14.228 18.476 19.33.603.809 1.293 1.679 1.532 1.933.239.255 1.027 1.387 1.751 2.516.724 1.128 1.396 1.972 1.493 1.875.097-.097-.061-.556-.351-1.02-.495-.794.404-1.773 15.083-16.439C356.025 77.395 358 75.6 358 76.916c0 .284.72 1.312 1.6 2.284.88.972 1.6 1.934 1.6 2.137 0 .203.316.66.703 1.016.386.356.957 1.142 1.267 1.747.311.605.715 1.1.898 1.1.182 0 .332.27.332.6 0 .33.18.6.4.6.22 0 .4.193.4.429 0 .449.979 1.571 1.371 1.571.483 0 .198-.935-.474-1.553-.386-.356-.957-1.142-1.267-1.747-.311-.605-.715-1.1-.898-1.1-.182 0-.332-.27-.332-.6 0-.33-.18-.6-.4-.6-.22 0-.4-.23-.4-.512 0-.281-.36-.771-.8-1.088-.44-.317-.8-.715-.8-.884 0-.294-.845-1.42-1.9-2.532-.275-.29-.5-.662-.5-.827 0-.165-.585-.882-1.3-1.594-2.962-2.947-4.7-4.903-4.7-5.29 0-.226-1.26-1.699-2.8-3.273-1.54-1.574-2.8-2.994-2.8-3.155 0-.161-.716-.912-1.591-1.669s-1.595-1.601-1.6-1.876c-.005-.275-.171-.5-.37-.5-.362 0-6.742-6.242-8.239-8.061-.44-.535-1.606-1.595-2.591-2.356-.986-.76-2.593-2.148-3.572-3.083-.979-.935-1.9-1.7-2.047-1.7-.147 0-.7-.371-1.229-.824l-1.864-1.6c-1.037-.891-1.16-.922-1.497-.376m-49.4 20.99c0 .104.585.475 1.3.824l1.3.634-1-.815c-.963-.785-1.6-1.041-1.6-.643m2.8 1.6c0 .104.585.475 1.3.824l1.3.634-1-.815c-.963-.785-1.6-1.041-1.6-.643m2.8 1.593c0 .101.855.675 1.9 1.277 4.553 2.621 11.48 7.48 16.6 11.644 1.705 1.387 3.091 2.381 3.08 2.209-.011-.172-.925-1.033-2.03-1.913a116.206 116.206 0 0 1-2.48-2.013c-.259-.227-1.1-.849-1.87-1.381s-1.49-1.082-1.6-1.223c-.217-.278-8.75-6.014-11.492-7.727-1.679-1.048-2.108-1.225-2.108-.873m-104.729 6.245c-4.561.898-9.337 4.546-11.456 8.753-.982 1.949-1.803 5.106-1.045 4.019.23-.33.421-.898.424-1.262.018-2.007 5.044-8.219 7.606-9.403 8.368-3.867 18.53-.582 21.858 7.065.335.77.774 1.713.976 2.095.201.382.366 4.545.366 9.251 0 6.769.115 8.651.55 9.012.386.321 3.443.425 10.3.349l9.75-.107.243-8.4c.259-8.928.401-9.935 1.733-12.312 1.947-3.475 6.209-7.488 7.953-7.488.296 0 .672-.135.836-.3 2.596-2.606 12.983-.285 16.543 3.697 2.573 2.877 2.683 3.049 4.099 6.403.354.838.566 4.797.703 13.12l.196 11.92 1.285.98c.706.539 1.4.98 1.542.98.142 0 .575.26.962.578.388.317 1.827 1.411 3.199 2.429 2.904 2.156 7.807 6.892 9.517 9.193.654.879 1.465 1.906 1.802 2.282 2.827 3.147 7.475 13.479 8.781 19.518.261 1.21.659 2.916.884 3.792.546 2.123.507 16.483-.047 17.934-.237.619-.431 1.514-.431 1.989 0 .949-1.453 6.077-2.034 7.18-.201.382-.366.88-.366 1.108 0 .823-3.208 7.27-4.984 10.014-2.266 3.503-2.347 3.08 1.084 5.617 9.582 7.086 18.377 19.53 21.177 29.966 1.792 6.676 2.006 8.247 2.201 16.2.119 4.825.022 8.403-.265 9.8-1.055 5.141-1.309 6.273-1.706 7.6-.686 2.294-1.168 3.752-1.52 4.6-6.241 15.014-15.718 25.271-29.587 32.024-3.856 1.878-4.176 2.012-6.782 2.833-1.2.379-1.992.752-1.76.829 2.283.761 14.921-6.047 21.777-11.73 7.697-6.381 15.694-18.459 17.98-27.156.174-.66.58-2.19.902-3.4 1.696-6.356 2.262-18.008 1.148-23.6-3.116-15.634-9.848-27.299-21.02-36.424a403.002 403.002 0 0 1-4.092-3.376l-.937-.8 1.606-2.4c3.503-5.233 6.075-11.684 8.054-20.2.688-2.958.686-16.255-.003-19.2-1.131-4.841-1.395-5.871-1.947-7.6-3.831-12.005-11.744-22.38-22.423-29.4l-3.651-2.4-.126-12-.126-12-1.3-2.656c-5.648-11.545-20.042-13.247-27.854-3.295-2.919 3.72-3.446 6.083-3.446 15.462v7.889h-19.512l-.173-8.7c-.119-5.983-.338-9.075-.7-9.9-.29-.66-.761-1.74-1.047-2.4-2.543-5.874-10.881-9.913-17.697-8.572M160.891 93.5l-.091 8.1h-10.94c-6.784 0-11.457.165-12.3.435-.748.24-1.611.514-1.917.61-1.531.478.044.415 1.945-.078 1.618-.42 4.921-.567 12.712-.567 8.18 0 10.569-.114 10.721-.512.109-.281.144-4.016.079-8.3l-.118-7.788-.091 8.1M366.8 89.026c0 .521.858 1.774 1.214 1.774.57 0 .469-.774-.185-1.429-.592-.591-1.029-.738-1.029-.345m1.2 2.393c0 .121.447.634.993 1.14.547.506.875 1.04.73 1.185-.146.145.082.527.506.847.424.321.624.589.444.596-.18.007.045.536.5 1.175s.827 1.359.827 1.6c0 .241.253.438.563.438.365 0 .489.28.353.8-.117.447-.012.8.237.8.246 0 .447.27.447.6 0 .33.18.6.4.6.22 0 .4.27.4.6 0 .33.18.6.4.6.817 0 .335-1.175-2.2-5.355-1.43-2.358-2.6-4.381-2.6-4.495 0-.114-.257-.464-.571-.779-.565-.564-1.429-.777-1.429-.352m7.2 11.981c0 .33.18.6.4.6.22 0 .4-.27.4-.6 0-.33-.18-.6-.4-.6-.22 0-.4.27-.4.6m-243.893 1.9c-2.207 1.816-5.722 6.698-4.102 5.697.217-.134.395-.412.395-.616 0-.56 1.158-1.947 3.573-4.281 2.446-2.364 2.512-2.757.134-.8M376 105c0 .33.18.6.4.6.22 0 .4.27.4.6 0 .33.18.6.4.6.22 0 .4.36.4.8 0 .44.18.8.4.8.22 0 .4.36.4.8 0 .44.18.8.4.8.22 0 .4.36.4.8 0 .44.18.8.4.8.22 0 .4.36.4.8 0 .44.18.8.4.8.22 0 .4.36.4.8 0 .44.18.8.4.8.22 0 .4.36.4.8 0 .44.18.8.4.8.22 0 .4-.259.4-.576 0-.317-.18-.688-.4-.824-.22-.136-.4-.597-.4-1.024 0-.427-.135-.777-.3-.779-.359-.004-1.3-1.941-1.3-2.677 0-.286-.135-.521-.3-.523-.359-.004-1.3-1.941-1.3-2.677 0-.286-.18-.52-.4-.52-.22 0-.4-.283-.4-.629 0-.606-.902-1.771-1.371-1.771-.126 0-.229.27-.229.6m-46.978 8.162c1.198 1.739 2.178 3.359 2.178 3.6 0 .241.147.438.326.438.179 0 .625.585.991 1.3.365.715 1.207 2.2 1.87 3.3.663 1.1 1.499 2.588 1.858 3.306.359.719.825 1.414 1.037 1.544.832.515-2.328-5.008-6.833-11.942-1.677-2.581-3.174-4.696-3.327-4.7-.153-.005.702 1.415 1.9 3.154m-202.945-.412c-.703 2.016-.984 6.056-.547 7.85.336 1.379.395 1.031.43-2.526.022-2.27.232-4.485.466-4.922.234-.438.356-1.007.27-1.263-.085-.257-.364.13-.619.861M382.4 117.4c0 .33.18.6.4.6.22 0 .4-.27.4-.6 0-.33-.18-.6-.4-.6-.22 0-.4.27-.4.6m.628 1.355c-.121.195.049.577.376.849.328.272.596.832.596 1.245 0 .413.201.751.447.751.249 0 .354.353.237.8-.196.748.337 1.512.76 1.089.273-.273-.779-3.489-1.141-3.489-.167 0-.303-.36-.303-.8 0-.818-.578-1.083-.972-.445m-256.833 4.495c1.973 6.681 8.997 11.098 17.705 11.136l3.3.014v131.2l-3.1.014c-3.505.016-7.179.706-9.406 1.766-2.351 1.119-2.178 1.505.192.431 2.217-1.004 6.894-1.811 10.5-1.811 1.572 0 2.192-.165 2.371-.633.318-.827.318-129.907 0-130.734-.184-.481-.833-.635-2.7-.641-9.101-.029-18.257-5.336-18.257-10.581 0-.31-.199-.687-.443-.837-.302-.187-.354.027-.162.676m213.024 7.45c.033.532 2.343 4.715 2.362 4.279.011-.232-.447-1.357-1.017-2.5-.965-1.937-1.39-2.5-1.345-1.779m-159.435 3.8c-.106.275-.145 10.67-.088 23.1l.104 22.6h21.8c23.343 0 22.967.029 27.522-2.092 2.226-1.037 5.321-3.201 6.678-4.669 1.484-1.606 3.482-4.291 3.316-4.457-.091-.09-.854.739-1.696 1.844-2.687 3.522-6.675 6.478-10.511 7.788-3.874 1.324-6.151 1.422-26.612 1.148l-20.304-.273.104-22.445.103-22.444 20.8-.121c15.143-.089 21.398.01 23 .36 5.712 1.252 11.166 5.07 14.46 10.123.847 1.299 1.54 2.132 1.54 1.851 0-3.198-8.227-10.139-14.206-11.986-3.3-1.019-45.63-1.32-46.01-.327m162.423 2.579c.675 1.614.993 2.079.993 1.449 0-.497-1.191-2.928-1.435-2.928-.097 0 .102.666.442 1.479m-101.471 12.594c.365 1.14.715 1.807.777 1.482.111-.574-.964-3.555-1.282-3.555-.086 0 .141.933.505 2.073m1.064 7.527c0 2.598.132 4.516.294 4.262.387-.609.393-8.561.006-8.8-.165-.102-.3 1.94-.3 4.538m-.554 5.867c-.025.257-.162.797-.305 1.2-.201.569-.147.63.238.275.273-.251.41-.791.305-1.2-.105-.408-.212-.532-.238-.275m-1.391 3.588c-.379.794-.607 1.526-.506 1.627.1.101.492-.468.869-1.264.378-.796.605-1.528.506-1.627-.099-.1-.491.469-.869 1.264M179.6 239.2V266h28.581c15.889 0 28.989-.159 29.5-.358.506-.197 1.729-.594 2.719-.882 1.697-.493 2.398-.826 5.789-2.747 2.902-1.644 5.732-4.507 8.27-8.364 1.878-2.855 2.373-3.963 1.541-3.449-.22.136-.4.422-.4.637 0 2.095-6.02 8.576-10.459 11.26-5.698 3.445-4.03 3.289-36.444 3.413l-28.703.11.103-26.31.103-26.31h28.686c15.777 0 28.377-.122 28-.272-.377-.149-13.421-.284-28.986-.3l-28.3-.028v26.8m59.6-25.429c2.478.911 3.447 1.05 1.8.258-.88-.423-1.96-.77-2.4-.771-.487-.001-.252.2.6.513m5.2 1.972c0 .079 1.035.828 2.3 1.664 3.998 2.643 7.118 6.366 9.317 11.116.63 1.362 1.155 2.25 1.165 1.973.059-1.631-3.139-6.844-6.142-10.012-2.267-2.392-6.64-5.514-6.64-4.741m12.828 15.933c.068 1.268.714 2.178.744 1.048.015-.592-.152-1.188-.372-1.324-.22-.136-.387-.012-.372.276m.968 7.736c-.002 2.74.12 4.668.272 4.285.356-.9.359-7.687.004-8.581-.15-.377-.274 1.557-.276 4.296m-.734 6.335c-.165.631-.206 1.242-.091 1.357.322.323.716-.966.544-1.781-.112-.533-.231-.422-.453.424m-.616 2.12c-.025.257-.162.797-.305 1.2-.201.569-.147.63.238.275.273-.251.41-.791.305-1.2-.105-.408-.212-.532-.238-.275M61.692 271.889c2.962 5.727 9.954 17.157 11.079 18.111.13.11.685.874 1.233 1.697.548.824 1.131 1.499 1.296 1.5.165.002.3.196.3.432 0 .235.225.657.5.936.275.28.95 1.103 1.5 1.83.55.727 2.125 2.678 3.5 4.335s2.5 3.234 2.5 3.505c0 .271-6.973 7.362-15.496 15.757l-15.496 15.263-1.404-1.546c-.772-.851-1.764-2.016-2.204-2.59-.44-.573-1.475-1.772-2.3-2.663-.825-.892-1.5-1.719-1.5-1.838s-.72-.959-1.6-1.866c-.88-.907-1.6-1.831-1.6-2.053 0-.223-.324-.696-.719-1.052-.395-.356-1.156-1.277-1.689-2.047-.534-.77-1.29-1.749-1.681-2.175-.391-.427-.711-1.002-.711-1.278s-.318-.737-.706-1.024c-.389-.288-.925-1.018-1.192-1.623-.266-.605-.649-1.1-.85-1.1-.201 0-.478-.45-.616-1s-.406-1-.595-1c-.189 0-.568-.54-.841-1.2-.273-.66-.655-1.2-.849-1.2-.193 0-.351-.32-.351-.712 0-.391-.36-.971-.8-1.288-.44-.317-.8-.897-.8-1.288 0-.392-.18-.712-.4-.712-.22 0-.4-.27-.4-.6 0-.33-.18-.6-.4-.6-1.306 0 .077-2.068 4.3-6.43 12.174-12.573 27.086-27.502 27.325-27.355.145.09.895 1.384 1.667 2.874m68.365-1.184c-1.85 1.85-4.413 6.273-3.92 6.765.134.135.358-.096.496-.513.488-1.463 1.392-3.325 1.877-3.865.269-.3 1.292-1.388 2.273-2.419 2.337-2.455 1.734-2.428-.726.032m-4.606 9.384c-.359 2.413.147 6.545.956 7.811.374.583.399.534.155-.3-.161-.55-.4-2.98-.532-5.4-.235-4.322-.246-4.359-.579-2.111m1.62 9.39c.371 1.021 2.628 4.155 2.84 3.943.202-.202-1.522-2.754-1.997-2.955-.172-.074-.314-.378-.314-.677 0-.298-.178-.653-.395-.787-.237-.146-.29.046-.134.476m3.33 4.351c.001.669 5.034 3.782 6.073 3.757.289-.006-.535-.539-1.831-1.184-1.297-.644-2.782-1.57-3.3-2.057-.519-.487-.943-.719-.942-.516m115.461 2.901c-.575.636-.662 1.922-.662 9.782 0 8.764-.078 9.472-1.35 12.281-1.114 2.462-4.361 5.771-6.864 6.995-2.245 1.099-2.882 1.684-1.286 1.182 7.131-2.244 9.981-7.998 10.283-20.76l.217-9.189 1-.505c.915-.462.929-.506.162-.511-.461-.003-1.136.323-1.5.725m-107.949 1.341c.378.149 5.637.253 11.687.23 6.05-.023 10.28-.096 9.4-.162-3.497-.264-21.731-.323-21.087-.068m55.587.36c-.633.368-.7 1.241-.7 9.055 0 11 .537 10.718.8-.42l.2-8.467H213l.209 8.4c.336 13.509 4.428 19.851 13.423 20.806 1.411.15 1.742.101 1.168-.171-.44-.208-1.374-.391-2.076-.407-.702-.015-1.388-.208-1.524-.428-.136-.22-.519-.4-.852-.4-1.616 0-5.272-3.211-7.402-6.501-1.859-2.872-2.086-4.202-2.238-13.085-.1-5.834-.28-8.275-.624-8.494-.738-.469-18.764-.366-19.584.112m-32.611 7.768c-.136 13.592 4.239 20.649 13.399 21.613 1.383.146 1.691.097 1.112-.178-.44-.208-1.297-.391-1.905-.407-.608-.015-1.418-.187-1.8-.381a59.698 59.698 0 0 0-1.895-.899c-1.773-.805-5.884-5.081-6.871-7.148-1.404-2.937-1.475-3.437-1.723-12.2l-.237-8.4-.08 8m31.278 10.843c-.757 2.271-1.68 3.669-3.953 5.987-1.386 1.414-2.811 2.57-3.167 2.57-.356 0-.647.18-.647.4 0 .22-.349.4-.776.4-.427 0-.9.199-1.05.443-1.027 1.661 5.254-2.223 7-4.33 1.447-1.745 3.449-5.623 3.089-5.983-.134-.135-.358.096-.496.513M179 327.6c-.682.293-.623.344.4.344.66 0 1.56-.155 2-.344.682-.293.623-.344-.4-.344-.66 0-1.56.155-2 .344m52.4 0c-.682.293-.623.344.4.344.66 0 1.56-.155 2-.344.682-.293.623-.344-.4-.344-.66 0-1.56.155-2 .344m-124.2 50.171c0 .094.495.428 1.1.744.605.315 2.153 1.138 3.441 1.829 2.49 1.336 3.059 1.496 3.059.856 0-.22-.36-.4-.8-.4-.44 0-.8-.18-.8-.4 0-.22-.36-.4-.8-.4-.44 0-.8-.18-.8-.4 0-.22-.27-.4-.6-.4-.33 0-.6-.18-.6-.4 0-.22-.349-.4-.776-.4-.427 0-.888-.18-1.024-.4-.239-.386-1.4-.576-1.4-.229m8.267 3.696c-.45.45-.297.933.295.933.666 0 3.979 1.668 4.171 2.1.237.533 2.147.338 1.959-.2-.096-.275-.497-.441-.891-.369-.394.072-.825-.036-.958-.24-.21-.32-3.862-2.491-4.191-2.491-.065 0-.239.12-.385.267" fill="#fbdb53"/><path d="M194 45.012c.33.066 2.49.332 4.8.591 14.192 1.591 29.395 5.273 40 9.688.55.229 1.36.558 1.8.731l2.6 1.028c10.739 4.246 27.29 14.332 38 23.156 6.423 5.292 19.2 18.01 19.2 19.111 0 .268-7.02 7.505-15.6 16.083s-15.6 15.8-15.6 16.05c0 .436 1.648 4.408 2.424 5.845.207.382.376.969.376 1.305 0 .336.162.923.361 1.305.333.642.588 1.52 1.619 5.595 1.385 5.476 1.369 17.698-.031 23.1l-.828 3.2c-.455 1.759-1.028 3.566-1.522 4.8-.177.44-.72 1.836-1.207 3.102-.488 1.266-1.45 3.25-2.139 4.408-.689 1.159-1.508 2.598-1.821 3.198-.312.601-.717 1.092-.9 1.092-.803 0-.227 1.589.819 2.261 3.004 1.929 9.694 8.241 11.963 11.287.595.798 1.186 1.542 1.314 1.652.787.678 3.964 5.892 5.639 9.256 9.352 18.785 7.934 41.89-3.626 59.082-2.523 3.753-3.097 4.476-6.641 8.362-3.571 3.917-10.698 9.414-14.232 10.978-.642.285-1.168.653-1.168.82 0 .166-.36.302-.8.302-.44 0-.8.18-.8.4 0 .22-.253.4-.562.4-.485 0-1.758.552-4.733 2.05a3.894 3.894 0 0 1-1.476.35c-.43 0-.893.18-1.029.4-.136.22-.588.4-1.005.4-.416 0-1.209.206-1.762.458l-1.004.457-.146 8.643c-.158 9.348-.24 9.951-1.791 13.227-1.077 2.276-5.278 6.815-6.307 6.815-.322 0-.586.135-.588.3-.004.401-1.978 1.3-2.853 1.3-.383 0-.808.18-.944.4-.339.548-7.496.507-8.881-.051-2.37-.954-4.513-2.085-5.201-2.744-5.873-5.625-6.504-7.398-6.512-18.297-.007-9.668 1.37-8.575-10.606-8.421l-8.8.113-.239 9.2-.238 9.2-1.287 2.4c-2.033 3.793-7.219 8.2-9.65 8.2-.406 0-.85.18-.986.4-.138.223-1.996.4-4.2.4s-4.062-.177-4.2-.4c-.136-.22-.58-.4-.986-.4-1.268 0-4.047-1.721-5.907-3.659-4.798-4.999-5.307-6.629-5.307-16.993 0-9.716 1.528-8.631-12-8.519-11.594.097-12.275-.009-16.242-2.525-1.785-1.132-4.897-4.644-5.673-6.404-.267-.605-.71-1.578-.985-2.161-1.084-2.302-.619-9.222.816-12.149 3.06-6.237 7.841-9.112 15.884-9.55l4.4-.24V134.6l-4.4-.227c-8.02-.414-12.776-3.271-15.89-9.545-1.449-2.918-1.984-10.914-.81-12.088.275-.275.5-.744.5-1.042 0-2.099 4.764-7.032 8.6-8.905l2.4-1.173-9.685-.01c-12.324-.013-15.472.991-19.407 6.19-8.675 11.462-1.157 25.626 14.092 26.546l4.2.254v130.8l-4.2.254c-14.415.87-22.183 13.724-15.174 25.11l.84 1.364-8.733 8.744-8.733 8.745 3.4 3.311c1.87 1.821 4.48 4.202 5.8 5.291 1.32 1.09 2.49 2.076 2.6 2.191.11.116 1.01.831 2 1.59.99.759 1.89 1.487 2 1.62.11.132 1.37 1.024 2.8 1.982 1.43.959 2.66 1.89 2.733 2.07.074.181.355.328.625.328s.849.315 1.287.7c.438.385 1.237.962 1.775 1.281.539.32 2.6 1.566 4.58 2.769 4.707 2.86 11.36 6.376 15.9 8.402 1.045.466 2.755 1.231 3.8 1.699 1.777.795 2.271.999 4.6 1.895.495.191 1.35.532 1.9.759 2.147.883 11.649 3.734 16.4 4.919 24.351 6.076 53.185 6.211 75 .353.88-.237 2.23-.578 3-.758.77-.18 2.39-.642 3.6-1.025 4.77-1.512 7.034-2.261 7.8-2.58.44-.183 1.43-.553 2.2-.821.77-.268 1.94-.719 2.6-1.002.66-.283 1.92-.81 2.8-1.171 3.902-1.601 5.118-2.166 10.4-4.832 33.939-17.132 60.903-46.813 74.461-81.964.769-1.993 1.564-3.937 1.768-4.319.204-.382.371-1.021.371-1.42s.149-.896.33-1.105c.182-.209.563-1.19.847-2.18.284-.99.654-2.25.823-2.8.169-.55.532-1.81.808-2.8.275-.99.652-2.34.837-3 4.265-15.177 5.881-37.788 3.973-55.6-1.079-10.074-2.235-16.026-5.204-26.8-.501-1.818-1.661-5.499-2.017-6.4-.174-.44-.533-1.43-.797-2.2a63.17 63.17 0 0 0-.84-2.3l-.76-1.9-.8-2-.759-1.9c-12.392-31.047-38.682-60.04-69.441-76.579-19.131-10.286-36.416-15.527-59.093-17.918-4.652-.49-22.94-.835-20.707-.391m-42.634 27.77c-8.359 2.976-11.048 8.102-10.874 20.73l.108 7.888h20l.201-8.6c.111-4.73.353-8.96.537-9.4 1.127-2.685 2.258-4.554 3.778-6.244l1.726-1.92-1.521-.952c-3.752-2.35-9.756-2.996-13.955-1.502m52.415-.059c-3.927 1.384-6.874 3.904-9.193 7.861l-1.133 1.933.098 9.242c.054 5.082.234 9.379.4 9.549.166.169 4.52.259 9.675.2L213 101.4l.2-8.6c.239-10.266.886-12.511 4.617-16.016 3.251-3.054-7.812-6.254-14.036-4.061m.468 61.997c-.109.176.646.567 1.677.869 19.917 5.83 20.601 35.862.973 42.743-1.156.406-2.227.863-2.381 1.016-.443.443 19.528.056 21.082-.409 22.166-6.624 21.145-38.555-1.405-43.939-2.626-.627-19.584-.865-19.946-.28M187 213.546c-.66.421-2.37 1.96-3.8 3.421l-2.6 2.656-.11 22.723-.109 22.724 27.185.277c28.343.289 28.336.289 33.348-1.42 4.147-1.414 6.505-2.985 9.922-6.61 13.757-14.594 7.247-37.753-12.243-43.556-3.863-1.15-49.827-1.342-51.593-.215" fill="#f89a04"/><path d="M189.2 44.841c-1.43.183-5.12.602-8.2.932-3.08.329-6.5.777-7.6.995-1.1.218-2.99.584-4.2.813a119.663 119.663 0 0 0-10.2 2.425c-.88.253-2.14.558-2.8.677-.66.12-1.38.342-1.6.495-.22.153-1.21.511-2.2.796-.99.284-2.16.659-2.6.831-.44.173-1.43.531-2.2.795a51.7 51.7 0 0 0-2.4.894c-1.107.457-2.48 1.009-4 1.606-.55.216-1.313.552-1.695.747-.382.194-.967.353-1.3.353-.333 0-.605.18-.605.4 0 .22-.23.4-.511.4-.282 0-2.539.99-5.017 2.2-2.478 1.21-4.57 2.2-4.648 2.2-.078 0-1.327.72-2.776 1.6-1.448.88-2.737 1.6-2.863 1.6-.126 0-1.254.68-2.507 1.511-1.253.831-2.773 1.761-3.378 2.067-.605.307-1.1.707-1.1.89 0 .182-.236.332-.525.332-.288 0-.883.315-1.321.7-.439.385-1.08.88-1.425 1.1-8.338 5.32-21.892 17.565-29.729 26.857-4.461 5.289-9.8 12.342-9.8 12.946 0 .219-.15.397-.332.397-.183 0-.588.495-.9 1.1-.313.605-.883 1.449-1.268 1.875-.385.427-.7.932-.7 1.122 0 .191-.72 1.407-1.6 2.703-.88 1.296-1.6 2.459-1.6 2.585 0 .126-.72 1.415-1.6 2.863-.88 1.449-1.6 2.698-1.6 2.776 0 .078-.99 2.17-2.2 4.648-1.21 2.478-2.2 4.735-2.2 5.017 0 .281-.18.511-.4.511-.22 0-.4.272-.4.605 0 .333-.159.918-.353 1.3-.374.735-1.123 2.494-1.701 3.995-.19.495-.514 1.305-.72 1.8-.205.495-.602 1.62-.881 2.5-.28.88-.652 1.771-.827 1.98-.175.209-.318.783-.318 1.276s-.18 1.008-.4 1.144c-.22.136-.4.676-.4 1.2 0 .524-.18 1.064-.4 1.2-.22.136-.4.766-.4 1.4 0 .634-.16 1.252-.356 1.373-.195.121-.452.806-.571 1.523a45.013 45.013 0 0 1-.644 3.004c-.771 3.055-1.224 5.063-1.648 7.3-.229 1.21-.597 3.1-.817 4.2-.22 1.1-.58 3.98-.8 6.4-.219 2.42-.585 5.57-.812 7-.516 3.236-.261 24.35.374 31 .461 4.829.723 6.52 1.924 12.4.359 1.76.796 3.92.971 4.8.175.88.529 2.32.786 3.2.257.88.561 2.187.674 2.904.114.717.368 1.402.563 1.523.196.121.356.739.356 1.373s.18 1.264.4 1.4c.22.136.4.676.4 1.2 0 .524.18 1.064.4 1.2.22.136.4.599.4 1.029 0 .43.18 1.139.4 1.576l.8 1.59c.22.437.4 1.069.4 1.405 0 .336.159.923.353 1.305.374.735 1.123 2.494 1.701 3.995.19.495.503 1.305.696 1.8 2.137 5.506 9.006 18.108 13.789 25.3 1.755 2.64 3.342 4.86 3.526 4.933.184.074.335.374.335.667 0 .293.142.593.314.667.173.073.753.763 1.289 1.533.535.77 2.329 2.996 3.985 4.947 1.657 1.951 3.572 4.291 4.256 5.2 1.744 2.317 12.512 12.749 16.356 15.846 1.76 1.418 3.29 2.689 3.4 2.825.474.583 8 5.556 7.997 5.283-.002-.165-1.102-1.009-2.444-1.873-1.343-.865-2.646-1.768-2.897-2.006-.251-.239-1.266-1.056-2.256-1.817-.99-.762-1.89-1.479-2-1.595-.11-.115-1.28-1.101-2.6-2.191-1.32-1.089-3.93-3.47-5.8-5.291l-3.4-3.311 8.733-8.745 8.733-8.744-.84-1.364c-7.009-11.386.759-24.24 15.174-25.11l4.2-.254V134.6l-4.2-.254c-6.552-.395-9.697-1.656-13.036-5.225-8.143-8.706-4.812-22.478 6.456-26.694 2.54-.95 22.269-1.311 20.98-.383-.483.347-.444.377.2.154.44-.152 1.43-.367 2.2-.476l1.4-.2-.116-7.926c-.147-10.038.485-12.4 4.479-16.74 4.9-5.323 14.115-6.482 20.374-2.562l1.537.963 1.496-.99c6.205-4.106 14.556-3.198 20.266 2.203 1.871 1.769 4.164 5.442 4.164 6.67 0 .253.18.46.4.46.22 0 .4-.332.4-.738 0-3.257 6.316-9.101 11.295-10.45 4.206-1.139 13.905.836 13.905 2.832 0 .217.765-.132 1.7-.775 7.437-5.116 17.967-2.851 22.85 4.915 2.503 3.98 2.419 3.436 2.573 16.616l.142 12.2 3.497 2.293c1.923 1.261 4.023 2.758 4.667 3.327.644.569 1.932 1.671 2.863 2.449 4.201 3.512 9.938 11.416 12.378 17.053.82 1.897 1.564 3.377 1.652 3.289.088-.088-.308-1.183-.881-2.434-.573-1.25-1.041-2.478-1.041-2.727 0-.25 7.02-7.472 15.6-16.05s15.6-15.815 15.6-16.083c0-1.101-12.777-13.819-19.2-19.111-10.71-8.824-27.261-18.91-38-23.156-.99-.392-2.25-.902-2.8-1.135-5.449-2.301-13.856-4.993-20.8-6.659-7.769-1.864-12.938-2.772-20.8-3.653-2.31-.259-4.47-.536-4.8-.614-.33-.079 3.965-.106 9.544-.061 5.579.045 9.719-.038 9.2-.183-1.348-.379-20.438-.3-23.544.096m25.233.503c.092.079 1.607.248 3.367.374 1.938.139 2.884.093 2.4-.116-.755-.326-6.123-.566-5.767-.258m7.2.8c.092.079 1.157.255 2.367.39 1.47.164 2.001.118 1.6-.138-.544-.348-4.358-.59-3.967-.252m5.2.8c.092.08.977.262 1.967.406 1.258.183 1.619.141 1.2-.138-.54-.359-3.568-.615-3.167-.268m4.4.803c.092.081.887.257 1.767.391 1.115.169 1.358.133.8-.119-.768-.348-2.91-.575-2.567-.272m4 .797c.472.406 2.41.649 2.177.272-.142-.229-.727-.416-1.3-.416-.574 0-.968.065-.877.144M239 49.6c1.196.514 2.195.514 1.4 0-.33-.213-.96-.378-1.4-.366l-.8.022.8.344m5.8 1.6c.33.213.87.388 1.2.388.533 0 .533-.043 0-.388-.33-.213-.87-.388-1.2-.388-.533 0-.533.043 0 .388m7.2 2.4c.33.213.87.388 1.2.388.533 0 .533-.043 0-.388-.33-.213-.87-.388-1.2-.388-.533 0-.533.043 0 .388m2.033.56c.345.331 5.308 2.232 5.452 2.089.082-.083-1.03-.622-2.472-1.2-2.474-.99-3.361-1.255-2.98-.889m7.567 3.122c.99.463 2.869 1.35 4.176 1.971 1.306.621 2.437 1.067 2.513.991.223-.223-7.549-3.862-8.167-3.824-.177.011.488.399 1.478.862M308 88.309c2.75 2.681 5.086 4.879 5.191 4.883.348.014-6.157-6.423-8.191-8.105-1.1-.91.25.54 3 3.222m5.971 6.135c.498.526 2.221 2.486 3.829 4.356a465.59 465.59 0 0 0 3.999 4.6l1.074 1.2-.802-1.2c-1.128-1.688-8.054-9.567-8.575-9.756-.237-.086-.024.274.475.8m10.267 12.356c.79 1.1 1.512 2 1.603 2 .3 0-2.435-3.985-2.74-3.993-.165-.004.347.893 1.137 1.993m-143.971 27.867c-.37.37-.338 44.444.033 44.662.165.097 9.48.258 20.7.357 11.22.099 16.53.075 11.8-.053-5.214-.141-8.285-.365-7.8-.568.44-.185 1.675-.678 2.743-1.096 18.928-7.408 17.673-36.675-1.817-42.38-1.031-.302-1.786-.693-1.677-.869.238-.384-23.599-.437-23.982-.053m92.567 7.733c.012.33.177.96.366 1.4l.344.8.022-.8c.012-.44-.153-1.07-.366-1.4-.345-.533-.385-.533-.366 0m.812 3.4c.069 1.631.669 2.987.708 1.6.019-.66-.141-1.47-.354-1.8-.319-.494-.382-.459-.354.2m.954 11.159c0 3.855.122 6.701.272 6.325.345-.868.335-11.175-.012-12.409-.143-.508-.26 2.229-.26 6.084m76.212 5.841c0 .33.175.87.388 1.2.345.533.388.533.388 0 0-.33-.175-.87-.388-1.2-.345-.533-.388-.533-.388 0m.856 3.2c.02 1.039.65 2.746.664 1.8.006-.44-.143-1.16-.332-1.6-.211-.49-.339-.568-.332-.2m-77.619.4c-.033.33-.16 1.05-.282 1.6-.192.864-.16.903.232.288.249-.391.376-1.111.282-1.6-.095-.488-.199-.618-.232-.288m78.589 4.6c.332 1.984.564 2.304.556.767-.003-.642-.19-1.437-.415-1.767-.293-.43-.333-.146-.141 1M273 170.8c-.15.473-.183.95-.073 1.06.11.11.323-.187.473-.66.15-.473.183-.95.073-1.06-.11-.11-.323.187-.473.66m80.438 4.6c.332 1.984.564 2.304.556.767-.003-.642-.19-1.437-.415-1.767-.293-.43-.333-.146-.141 1m.834 6.4c.13 1.54.303 2.875.383 2.967.312.358.068-4.214-.266-4.967-.224-.505-.267.234-.117 2m-85.307.075c-.614 1.279-1.765 3.315-2.556 4.525a235.211 235.211 0 0 0-1.724 2.663c-.176.284.716 1.251 2.314 2.507 1.431 1.124 2.6 1.905 2.599 1.737-.001-.169-.991-1.022-2.2-1.895-1.905-1.376-2.922-3.012-1.872-3.012.179 0 .749-.765 1.266-1.7 2.912-5.263 3.669-6.772 3.49-6.951-.109-.109-.702.847-1.317 2.126M355 200c0 7.565.114 13.225.253 12.577.139-.647.252-6.307.252-12.577s-.113-11.93-.252-12.577c-.139-.648-.253 5.012-.253 12.577m-84.029-5.303c.644.712 1.259 1.207 1.367 1.099.107-.108.12-.241.029-.296-.092-.055-.707-.549-1.367-1.099l-1.2-.998 1.171 1.294m1.903 1.545c.07.243 1.552 1.953 3.294 3.8 1.743 1.847 2.786 2.818 2.319 2.158-1.124-1.589-5.773-6.523-5.613-5.958m8.096 9.858c.96 1.375 2.416 3.805 3.237 5.4 1.424 2.767 2.068 3.707 1.507 2.2-.779-2.094-5.688-10.086-6.201-10.095-.157-.003.498 1.12 1.457 2.495m-100.703 6.967c-.147.146-.267 12.026-.267 26.4V265.6l17.5-.096 17.5-.095-17.31-.109-17.309-.109.109-22.784.11-22.784 2.6-2.656c1.43-1.461 3.14-2.995 3.8-3.41l1.2-.754-3.833-.002c-2.109 0-3.954.119-4.1.266M286.046 215c.023.699 1.494 3.627 1.508 3 .007-.33-.332-1.23-.754-2s-.761-1.22-.754-1m68.419 1.4c-.04.77-.161 2.12-.268 3l-.194 1.6.42-1.338c.231-.735.351-2.085.268-3-.143-1.571-.155-1.585-.226-.262m-66.853 2.8c0 .33.175.87.388 1.2.345.533.388.533.388 0 0-.33-.175-.87-.388-1.2-.345-.533-.388-.533-.388 0m.8 2.4c0 .33.175.87.388 1.2.345.533.388.533.388 0 0-.33-.175-.87-.388-1.2-.345-.533-.388-.533-.388 0m65.242 1.8c-.035.44-.165 1.25-.287 1.8-.192.863-.16.903.231.29.249-.391.379-1.201.288-1.8-.108-.711-.189-.811-.232-.29m-64.42 1c.012.33.177.96.366 1.4l.344.8.022-.8c.012-.44-.153-1.07-.366-1.4-.345-.533-.385-.533-.366 0m63.62 3.4c-.035.44-.165 1.25-.287 1.8-.192.863-.16.903.231.29.249-.391.379-1.201.288-1.8-.108-.711-.189-.811-.232-.29m-62.808.4c.069 1.631.669 2.987.708 1.6.019-.66-.141-1.47-.354-1.8-.319-.494-.382-.459-.354.2m61.804 4.65c-.141.703-.181 1.352-.091 1.442.091.091.289-.401.441-1.092.152-.691.193-1.341.091-1.442-.102-.102-.3.389-.441 1.092m-60.87 6.369c-.01 3.554.112 6.129.272 5.722.36-.913.366-9.995.008-11.263-.143-.508-.269 1.986-.28 5.541m60.049-2.99c-.148.586-.178 1.155-.068 1.265.11.11.32-.279.468-.865.147-.587.177-1.156.067-1.266-.11-.11-.32.279-.467.866m-.829 3.371c-.15.473-.183.95-.073 1.06.11.11.323-.187.473-.66.15-.473.183-.95.073-1.06-.11-.11-.323.187-.473.66m-.8 2.8c-.15.473-.183.95-.073 1.06.11.11.323-.187.473-.66.15-.473.183-.95.073-1.06-.11-.11-.323.187-.473.66m-.8 2.8c-.15.473-.183.95-.073 1.06.11.11.323-.187.473-.66.15-.473.183-.95.073-1.06-.11-.11-.323.187-.473.66m-58.146 3c-.035.44-.165 1.25-.287 1.8-.192.863-.16.903.231.29.249-.391.379-1.201.288-1.8-.108-.711-.189-.811-.232-.29m56.613 1.667c-.147.146-.256.641-.242 1.1.024.766.057.756.409-.125.392-.979.31-1.453-.167-.975M289.4 253.2c-.152.691-.186 1.347-.076 1.457.11.11.324-.366.476-1.057.152-.691.186-1.347.076-1.457-.11-.11-.324.366-.476 1.057m54.808 4.701c-.839 2.144-1.651 4.079-1.805 4.299-.401.575-.81 1.8-.6 1.8.383 0 4.351-9.579 4.08-9.85-.082-.082-.835 1.606-1.675 3.751M288.6 256c-.15.473-.183.95-.073 1.06.11.11.323-.187.473-.66.15-.473.183-.95.073-1.06-.11-.11-.323.187-.473.66m-38.2 1.8c-.972.99-1.677 1.8-1.567 1.8.11 0 .995-.81 1.967-1.8.972-.99 1.677-1.8 1.567-1.8-.11 0-.995.81-1.967 1.8m36.623 3c-.695 2.304-4.443 9.257-6.649 12.337-2.316 3.233-2.911 4.261-1.849 3.192 2.45-2.467 9.367-14.872 8.958-16.067-.087-.254-.294-.012-.46.538m54.034 4.284a25.02 25.02 0 0 1-.638 1.616c-.64 1.464-.116 1.025.615-.514.369-.778.58-1.505.469-1.616-.111-.111-.311.12-.446.514m-2.817 5.756c-.395.668-.629 1.304-.521 1.413.109.108.487-.384.841-1.093s.588-1.345.521-1.413c-.068-.067-.446.425-.841 1.093m-1.654 3.26-.634 1.3.815-1c.785-.963 1.041-1.6.643-1.6-.104 0-.475.585-.824 1.3m-61.167 5.298c-2.19 2.537-6.785 6.432-10.819 9.171-3.342 2.27-3.774 2.672-1.559 1.453 3.707-2.04 11.827-8.908 13.789-11.664 1.304-1.832.656-1.354-1.411 1.04m58.889-1.298c-.321.495-.801 1.35-1.068 1.9-.68 1.403.554-.094 1.401-1.7.698-1.326.482-1.456-.333-.2m-3.558 5.8a302.992 302.992 0 0 1-4.085 6.1c-1.289 1.87-1.991 3.04-1.561 2.6.775-.792 5.071-7.008 6.842-9.9 1.585-2.587.633-1.632-1.196 1.2m-79.35 11.3c-.771.331-.769.345.076.372.482.015.988-.152 1.124-.372.292-.473-.099-.473-1.2 0m-3 .865c-2.36.663-2.341.587-2.476 10.198-.068 4.875.008 8.655.17 8.4.162-.255.297-4.259.3-8.899l.006-8.436 1.019-.464c.56-.255 1.36-.464 1.776-.464.417 0 .869-.18 1.005-.4.29-.469.075-.461-1.8.065m69.4 5.224c-5.382 6.193-8.57 9.433-14.2 14.432-5.709 5.068-6.696 5.995-5.4 5.069 4.729-3.379 19.26-17.866 22.523-22.455 1.094-1.539.167-.602-2.923 2.954M138 298.405c.33.211 1.125.386 1.767.389 1.547.008 1.21-.223-.767-.526-1.09-.167-1.409-.123-1 .137m54.846 17.862c-.025.257-.162.797-.305 1.2-.201.569-.147.63.238.275.273-.251.41-.791.305-1.2-.105-.408-.212-.532-.238-.275m52.4 0c-.025.257-.162.797-.305 1.2-.201.569-.147.63.238.275.273-.251.41-.791.305-1.2-.105-.408-.212-.532-.238-.275m-54.601 4.721c-.365.556-.523 1.012-.35 1.012.389 0 1.424-1.614 1.187-1.851-.096-.096-.472.282-.837.839m52.23.196c-1.193 1.614-1.107 2.011.125.578.882-1.026 1.248-1.762.875-1.762-.068 0-.518.533-1 1.184m53.747.381c-.397.642-5.535 4.408-10.422 7.639-4.541 3.002-6.413 4.445-3.6 2.774 3.129-1.859 11.72-7.899 14.567-10.241.091-.075.064-.239-.06-.364-.125-.124-.343-.038-.485.192m-107.828 1.841c-.52.554-1.735 1.47-2.701 2.036-.966.566-1.664 1.12-1.553 1.232.271.271 3.41-1.92 4.63-3.232.533-.573.879-1.042.769-1.042-.11 0-.625.453-1.145 1.006m50 1.812c-.547.421-.814.762-.594.76.529-.005 1.991-1.12 1.765-1.347-.097-.097-.624.167-1.171.587m-70.708.582c.809.55 1.613 1 1.786 1 .172 0-.349-.45-1.158-1-.809-.55-1.613-1-1.786-1-.172 0 .349.45 1.158 1m14.514 1.4c-.771.331-.769.345.076.372.482.015.988-.152 1.124-.372.292-.473-.099-.473-1.2 0m52.4 0c-.771.331-.769.345.076.372.482.015.988-.152 1.124-.372.292-.473-.099-.473-1.2 0m-61.938.9c.102.165 1.964.3 4.138.3s4.036-.135 4.138-.3c.102-.165-1.76-.3-4.138-.3s-4.24.135-4.138.3m52.275-.006c.61.387 8.162.393 8.401.006.101-.165-1.851-.3-4.339-.3-2.488 0-4.316.132-4.062.294m-112.143.688c.547.42 1.074.684 1.171.587.226-.227-1.236-1.342-1.765-1.347-.22-.002.047.339.594.76m1.606.961c0 .195 4.328 3.057 4.622 3.057.129 0 .986.509 1.906 1.131 1.862 1.26 11.102 5.997 10.472 5.369-.22-.22-2.11-1.294-4.2-2.388-4.371-2.288-8.269-4.544-10.672-6.176-1.574-1.069-2.128-1.328-2.128-.993m164.1 4.083c-1.888 1.132-2.323 1.723-.6.815 1.209-.638 2.816-1.81 2.5-1.824-.11-.005-.965.449-1.9 1.009m-5 2.803c-.605.328-1.1.681-1.1.784 0 .386.632.144 1.6-.613 1.189-.93 1.011-.991-.5-.171m-8.1 4.171c-.88.425-1.403.779-1.161.786.503.016 2.961-1.159 2.961-1.415 0-.239-.013-.234-1.8.629m-130.462.447c.846.446 1.622.727 1.725.624.226-.227-2.206-1.478-2.824-1.453-.242.009.253.382 1.099.829m127.462.874c-.55.284-2.08.941-3.4 1.46-1.32.519-2.58 1.109-2.8 1.31-.22.201.575-.016 1.768-.483 3.061-1.2 5.632-2.395 5.632-2.618 0-.269-.081-.247-1.2.331M148 346.4c.33.213.87.388 1.2.388.533 0 .533-.043 0-.388-.33-.213-.87-.388-1.2-.388-.533 0-.533.043 0 .388m2.4.8c.33.213.87.388 1.2.388.533 0 .533-.043 0-.388-.33-.213-.87-.388-1.2-.388-.533 0-.533.043 0 .388m2.4.8c.33.213.96.378 1.4.366l.8-.022-.8-.344c-1.196-.514-2.195-.514-1.4 0m92 .8c-.533.345-.533.388 0 .388.33 0 .87-.175 1.2-.388.533-.345.533-.388 0-.388-.33 0-.87.175-1.2.388m-86.8.8c.33.213 1.05.373 1.6.354l1-.034-1-.32c-1.542-.494-2.364-.494-1.6 0m3.8.988c.66.306 2.55.841 4.2 1.189 2.82.595 4.085.845 9 1.779 1.877.357 4.473.664 13.868 1.642 4.153.432 21.759.473 23.714.055.65-.139-3.58-.264-9.4-.277-14.886-.033-27.411-1.325-37.782-3.897-1.32-.328-2.94-.697-3.6-.821l-1.2-.225 1.2.555m77.4-.188c-.533.345-.533.388 0 .388.33 0 .87-.175 1.2-.388.533-.345.533-.388 0-.388-.33 0-.87.175-1.2.388m-6.8 1.6c-.804.257-.843.323-.2.332.44.006 1.16-.143 1.6-.332 1.019-.438-.032-.438-1.4 0m-4 .8-1 .32 1 .034c.55.019 1.27-.141 1.6-.354.764-.494-.058-.494-1.6 0m-4.6.8-1.2.305 1.2.042c.66.022 1.47-.134 1.8-.347.743-.48.087-.48-1.8 0m-6.8.8-2 .274 2.2.035c1.21.019 2.56-.12 3-.309.996-.428-.079-.428-3.2 0" fill="#fcbc04"/><path d="M178.601.311c-1.759.07-3.37.298-3.58.508-.209.209-1.504.381-2.877.381-1.373 0-2.608.18-2.744.4-.136.22-1.212.4-2.39.4-1.179 0-2.203.17-2.277.378-.073.207-1.16.418-2.415.467-1.255.05-2.189.24-2.076.423.113.182-.489.332-1.338.332-.849 0-1.786.225-2.083.5-.437.406-.479.388-.221-.1s.216-.506-.221-.1c-.297.275-1.122.5-1.835.5-.713 0-1.408.18-1.544.4-.136.22-.867.4-1.624.4-.757 0-1.376.18-1.376.4 0 .22-.619.4-1.376.4-.757 0-1.488.18-1.624.4-.136.22-.766.4-1.4.4-.634 0-1.264.18-1.4.4-.136.22-.687.4-1.224.4-.537 0-.976.155-.976.345 0 .19-1.006.463-2.234.607-1.229.145-2.737.523-3.35.84-.613.317-1.212.479-1.331.36-.118-.119-.651.069-1.182.417-.532.349-1.087.513-1.235.366-.147-.148-.268-.058-.268.198 0 .257-.135.446-.3.42-.938-.148-2.116.098-1.928.402.208.336-.13.447-3.272 1.076-.715.143-1.3.39-1.3.55 0 .407-1.879 1.219-2.819 1.219-.429 0-.781.18-.781.4 0 .22-.461.4-1.024.4-.58 0-.916.173-.776.4.136.22-.123.4-.576.4-.453 0-.824.18-.824.4 0 .22-.362.4-.805.4-.443 0-1.118.167-1.5.372-.382.204-2.315 1.147-4.295 2.095-1.98.948-3.66 1.861-3.733 2.028-.074.168-.489.305-.924.305-.435 0-.679.18-.543.4.141.228-.204.4-.8.4-.596 0-.941.172-.8.4.136.22-.033.4-.376.4-.343 0-.624.18-.624.4 0 .22-.36.4-.8.4-.44 0-.8.157-.8.35 0 .193-.518.454-1.152.58-.633.127-1.443.522-1.8.879-.356.356-.648.532-.648.391 0-.141-.285.027-.632.375-.348.348-.783.54-.966.426-.184-.113-.394-.059-.468.12-.215.522-4.02 3.012-4.603 3.012-.292 0-.44.092-.328.204.325.324-1.912 1.643-2.34 1.378-.213-.131-.258-.031-.101.223.169.274.031.462-.338.462-.343 0-.624.18-.624.4 0 .22-.32.4-.712.4-.391 0-.971.36-1.288.8-.317.44-.809.8-1.092.8-.283 0-1.08.54-1.771 1.2-.691.66-1.51 1.2-1.82 1.2-.31 0-.453.18-.317.4.136.22.044.4-.205.4s-.724.272-1.056.604c-.332.332-.797.484-1.033.338-.236-.146-.337-.103-.224.096.237.418-2.049 2.697-2.902 2.894-.315.073-.706.343-.87.6-.164.257-.301.331-.304.165-.003-.167-.573.238-1.265.9-.693.661-1.503 1.203-1.8 1.203-.298 0-.541.27-.541.6 0 .33-.152.6-.337.6-.369 0-2.323 1.645-5.11 4.3-.981.935-1.967 1.7-2.192 1.7-.224 0-.297.18-.161.4.136.22.065.4-.157.4s-1.447 1.074-2.723 2.386c-2.878 2.961-2.678 2.758-6.528 6.589-1.756 1.746-3.192 3.332-3.192 3.523 0 .192-.18.238-.4.102-.22-.136-.4-.032-.4.231 0 .262-.405.881-.9 1.374-1.616 1.61-2.958 3.249-3.219 3.928-.141.367-.544.667-.895.667-.458 0-.568.228-.386.8.15.473.072.8-.191.8-.245 0-.895.45-1.445 1s-.874 1-.72 1c.154 0-.046.36-.444.8-.398.44-.6.8-.45.8.151 0-.316.594-1.038 1.319-.721.726-1.475 1.238-1.674 1.138-.199-.099-.242.013-.096.249s-.006.701-.338 1.033c-.332.332-.604.807-.604 1.056s-.18.341-.4.205c-.22-.136-.4.084-.4.488 0 .405-.36.995-.8 1.312-.44.317-.8.817-.8 1.112 0 .303-.201.411-.462.25-.276-.171-.353-.111-.192.15.148.24-.184.89-.738 1.444-.555.554-1.008 1.286-1.008 1.626 0 .34-.18.618-.4.618-.22 0-.4.27-.4.6 0 .33-.18.6-.4.6-.22 0-.4.23-.4.512 0 .281-.36.771-.8 1.088-.44.317-.8.897-.8 1.288 0 .392-.159.712-.353.712-.195 0-.46.315-.589.7-.479 1.422-1.756 3.27-2.066 2.989-.176-.159-.174-.037.005.272.203.35.1.726-.274 1-.735.538-1.923 2.774-1.923 3.619 0 .341-.18.62-.4.62-.22 0-.4.36-.4.8 0 .44-.18.8-.4.8-.22 0-.4.36-.4.8 0 .44-.18.8-.4.8-.22 0-.4.281-.4.624 0 .369-.188.507-.462.338-.274-.169-.353-.111-.196.144.146.236.039.669-.238.962-.656.692-2.301 3.873-2.313 4.47-.005.254-.361.912-.791 1.462-.43.55-.786 1.405-.791 1.9-.005.495-.189.9-.409.9-.22 0-.4.349-.4.776 0 .427-.18.888-.4 1.024-.22.136-.4.607-.4 1.047 0 .44-.15.708-.333.595-.183-.113-.575.686-.872 1.776-.297 1.09-.687 1.982-.867 1.982-.181 0-.328.36-.328.8 0 .44-.16.8-.355.8-.195 0-.465.54-.6 1.2l-.49 2.396c-.134.658-.404 1.097-.6.976-.304-.188-.55.99-.402 1.928.026.165-.163.3-.42.3-.256 0-.346.121-.198.268.147.148-.01.693-.35 1.211-.34.519-.542 1.074-.449 1.232.094.159-.013.739-.238 1.289-.428 1.05-.518 1.389-.934 3.505-.141.718-.415 1.403-.61 1.524-.195.12-.354.737-.354 1.371s-.18 1.264-.4 1.4c-.22.136-.4.766-.4 1.4 0 .634-.16 1.252-.356 1.373-.195.121-.465.851-.6 1.623l-.488 2.808c-.135.772-.405 1.502-.6 1.623-.196.121-.356.829-.356 1.573s-.18 1.464-.4 1.6c-.22.136-.4 1.227-.4 2.424 0 1.197-.18 2.176-.4 2.176-.22 0-.4.9-.4 2s-.18 2-.4 2c-.22 0-.4.864-.4 1.92s-.165 2.091-.368 2.3c-.202.209-.468 1.55-.591 2.98-.124 1.43-.391 4.31-.594 6.4-.581 5.978-.364 45.843.254 46.461.284.284.499 1.498.499 2.819 0 1.276.152 2.32.337 2.32.185 0 .376 1.215.423 2.7.047 1.485.256 2.871.463 3.08.207.209.377 1.053.377 1.876s.18 1.608.4 1.744c.22.136.4 1.036.4 2s.18 1.864.4 2c.22.136.4.946.4 1.8 0 .854.18 1.664.4 1.8.22.136.4.856.4 1.6 0 .744.18 1.464.4 1.6.22.136.4.856.4 1.6 0 .744.18 1.464.4 1.6.22.136.4.777.4 1.424 0 .647.18 1.176.4 1.176.22 0 .4.551.4 1.224 0 .673.162 1.123.36 1.001.198-.122.445.542.548 1.476.257 2.307.574 3.475 1.126 4.14.255.307.346.559.201.559-.145 0-.085.332.132.738.217.406.489 1.26.605 1.897.116.638.384 1.217.597 1.288.212.071.284.394.16.718-.124.324.073.92.439 1.324s.62.892.565 1.085c-.056.192.225 1.07.624 1.95.398.88.868 1.96 1.044 2.4.176.44.697 1.653 1.159 2.696.462 1.042.84 2.197.84 2.566 0 .369.123.549.272.399.15-.15.519.495.82 1.433.517 1.608 2.874 6.672 3.308 7.106.421.421 1.2 2.01 1.2 2.448 0 .252.388.794.861 1.205.509.442.648.747.339.747s-.17.305.339.747c.473.411.861 1.041.861 1.4s.18.653.4.653c.22 0 .4.36.4.8 0 .44.326 1.126.725 1.525.399.399.654.939.567 1.2-.496 1.488 1.694-.087 5.916-4.252 5.544-5.47 5.226-4.611 3.213-8.673-7.384-14.896-14.099-35.092-16.825-50.6-.251-1.43-.61-3.41-.797-4.4-.188-.99-.544-3.51-.792-5.6s-.538-4.34-.644-5c-1.233-7.621-1.586-24.041-.753-35 .778-10.222 1.106-13.15 2.223-19.8.374-2.226.598-3.442 1.621-8.8.209-1.1.542-2.63.738-3.4.197-.77.57-2.3.829-3.4 2.969-12.585 8.898-28.625 15.154-41 3.654-7.227 3.994-7.826 10.967-19.33.91-1.502 1.925-3.032 2.256-3.4.331-.369 1.139-1.48 1.795-2.47C57.715 75.461 72.201 59.203 82.4 50.351c1.87-1.623 3.49-3.041 3.6-3.151 2.526-2.526 17.133-13.234 22.204-16.278.438-.262 2.416-1.451 4.396-2.642 4.072-2.449 8.768-5.034 12.6-6.936 3.756-1.865 10.346-4.944 10.58-4.944.11 0 1.37-.536 2.799-1.191 4.664-2.136 19.98-7.329 25.421-8.62 7.341-1.741 9.777-2.285 13.4-2.992 4.574-.893 6.016-1.133 9.4-1.565 1.87-.239 4.694-.614 6.277-.833 1.582-.22 3.922-.417 5.2-.439 1.277-.022 2.773-.187 3.323-.366.936-.305-15.812-.366-22.999-.083M238.4 3.2c0 .22.371.4.824.4.453 0 .712-.18.576-.4-.136-.22-.507-.4-.824-.4-.317 0-.576.18-.576.4m4 .715c0 .173.36.342.8.375.44.033.8-.109.8-.315 0-.206-.36-.375-.8-.375-.44 0-.8.142-.8.315m26.583 7.693c2.03.866 2.895 1.066 3.2.739.297-.319.245-.391-.183-.25-.33.108-1.14-.075-1.8-.407-.66-.332-1.513-.759-1.895-.947-.382-.189-1.012-.338-1.4-.332-.388.006.547.545 2.078 1.197M277.2 14.8c0 .22.27.4.6.4.33 0 .6-.18.6-.4 0-.22-.27-.4-.6-.4-.33 0-.6.18-.6.4m8.8 4c0 .22.27.4.6.4.33 0 .6-.18.6-.4 0-.22-.27-.4-.6-.4-.33 0-.6.18-.6.4m9.6 4.7c0 .169.36.532.8.807.44.275.8.362.8.193 0-.169-.36-.532-.8-.807-.44-.275-.8-.362-.8-.193M182.505 45.487c.609.092 1.509.09 2-.005.492-.095-.005-.171-1.105-.168-1.1.003-1.503.081-.895.173M347.2 63.758c0 .41 2.746 2.962 2.959 2.75.106-.106-.205-.579-.691-1.05-1.306-1.27-2.268-1.99-2.268-1.7m5.6 6.459c0 .468 1.987 2.33 2.228 2.088.141-.141-.204-.717-.767-1.281-.996-.995-1.461-1.252-1.461-.807m34.4 57.983c0 .33.18.6.4.6.22 0 .4-.27.4-.6 0-.33-.18-.6-.4-.6-.22 0-.4.27-.4.6m5.2 16.4c0 .33.18.6.4.6.22 0 .4-.27.4-.6 0-.33-.18-.6-.4-.6-.22 0-.4.27-.4.6m.8 2.6c0 .44.18.8.4.8.22 0 .4-.36.4-.8 0-.44-.18-.8-.4-.8-.22 0-.4.36-.4.8M45.324 183.8c.002 1.32.077 1.812.166 1.093.089-.719.087-1.799-.004-2.4s-.164-.013-.162 1.307m-.751 16.4c0 5.5.057 7.805.126 5.123.069-2.682.069-7.182 0-10-.069-2.818-.125-.623-.126 4.877m.747 16.2c0 1.21.075 1.705.167 1.1a8.899 8.899 0 0 0 0-2.2c-.092-.605-.167-.11-.167 1.1m354.381.6c.004.88.086 1.193.182.695.096-.497.092-1.217-.008-1.6-.1-.382-.179.025-.174.905m-1.409 12.842c-.161.16-.292.567-.292.905 0 .45.118.495.445.168.245-.245.376-.652.292-.905-.085-.253-.285-.329-.445-.168M397.2 235.4c0 .33.18.6.4.6.22 0 .4-.27.4-.6 0-.33-.18-.6-.4-.6-.22 0-.4.27-.4.6m-2.121 10.757c-.164.417-.204.852-.088.967.364.365.685-.233.533-.993-.141-.696-.162-.695-.445.026m-1.587 5.685c-.161.16-.287.666-.28 1.125.011.769.044.778.428.118.448-.769.333-1.725-.148-1.243m-.88 3.075c-.171.395-.199.83-.061.967.406.406.733-.164.546-.953-.165-.698-.187-.699-.485-.014m-21.583 49.912c-.599.904-1.017 1.717-.928 1.805.088.088.647-.583 1.242-1.491.595-.909 1.012-1.721.928-1.806-.085-.084-.644.587-1.242 1.492m-5.336 7.971c-.275.44-.362.8-.193.8.169 0 .532-.36.807-.8.275-.44.362-.8.193-.8-.169 0-.532.36-.807.8m-7.848 10.988c-.365.556-.486 1.012-.268 1.012.443 0 1.387-1.57 1.11-1.847-.098-.098-.477.278-.842.835m-3.21 4.015c-.64.55-1.045 1.12-.9 1.266.146.145.31.189.365.098.055-.092.536-.662 1.07-1.267 1.207-1.37.991-1.409-.535-.097M56.8 331.8c-2.081 2.09-4.013 3.8-4.292 3.8-.886 0 1.239 2.415 5.138 5.838.525.461 1.219 1.226 1.542 1.7.324.474.819.862 1.1.862.282 0 .512.152.512.338 0 .384 3.83 4.462 4.191 4.462.13 0 .75.495 1.379 1.1.629.605 1.985 1.82 3.014 2.7 1.029.88 2.33 2 2.892 2.489.562.488 1.36.995 1.773 1.127.413.131.751.496.751.811 0 1.065.669.584 4.273-3.072l3.593-3.645-8.648-8.655c-4.757-4.76-9.524-9.78-10.593-11.155-2.445-3.145-2.138-3.206-6.625 1.3m294.104.394c-.273.31-.354.652-.18.759.174.107.533-.153.799-.579.557-.891.119-1.018-.619-.18m-2.444 2.48c-.737.759-1.243 1.476-1.124 1.595.208.209 1.483-.95 2.613-2.376.955-1.205-.093-.655-1.489.781m-13.838 13.931c-.837.767-1.339 1.395-1.115 1.395.515 0 3.067-2.359 2.82-2.606-.1-.101-.868.445-1.705 1.211m-7.078 6.161c-.519.421-.854.855-.744.966.11.11.705-.235 1.322-.766 1.323-1.138.802-1.319-.578-.2m-3.369 2.886c-.821.874-.934 1.124-.375.83.917-.483 2.353-2.082 1.871-2.082-.177 0-.85.563-1.496 1.252m-3.945 2.772c-.471.474-.576.776-.271.776.504 0 1.641-.95 1.641-1.371 0-.439-.606-.176-1.37.595M286 381.2c0 .22.27.4.6.4.33 0 .6-.18.6-.4 0-.22-.27-.4-.6-.4-.33 0-.6.18-.6.4m-157.17 3.4c-2.038 2.111-2.352 2.6-1.67 2.6.462 0 .84.18.84.4 0 .22.33.4.733.4.404 0 .859.125 1.012.278.153.153.588.34.967.415.773.153 1.216.283 2.088.613 1.484.561 4.619 1.691 4.8 1.73.11.023.969.183 1.909.356.94.172 1.805.469 1.923.661.119.191.835.347 1.592.347.757 0 1.376.18 1.376.4 0 .22.63.4 1.4.4.77 0 1.4.18 1.4.4 0 .22.63.4 1.4.4.77 0 1.4.18 1.4.4 0 .22.63.4 1.4.4.77 0 1.4.18 1.4.4 0 .22.709.4 1.576.4.867 0 1.688.18 1.824.4.136.22 1.227.4 2.424.4 1.197 0 2.176.18 2.176.4 0 .22.799.4 1.776.4s1.888.18 2.024.4c.136.22 1.306.4 2.6.4s2.464.18 2.6.4c.136.22 1.281.4 2.544.4 1.263 0 2.489.193 2.724.428.28.28 5.095.482 13.98.585 7.756.09 13.039.013 12.352-.18-.66-.186-2.245-.36-3.523-.386-1.278-.026-3.528-.217-5-.424a843.295 843.295 0 0 0-6.077-.824c-1.87-.247-4.21-.603-5.2-.793-.99-.19-2.97-.556-4.4-.812-12.325-2.213-30.043-7.617-40.568-12.373-2.547-1.152-4.703-2.021-5.011-2.021-.154 0-1.41 1.17-2.791 2.6m142.37 3c-.485.314-.428.389.3.394.495.003.9-.174.9-.394 0-.501-.424-.501-1.2 0m-36.8 10c0 .501.424.501 1.2 0 .485-.314.428-.389-.3-.394-.495-.003-.9.174-.9.394m-5 .8c-.136.22.113.4.553.4.44 0 .911-.18 1.047-.4.136-.22-.113-.4-.553-.4-.44 0-.911.18-1.047.4m-5.48.88c.373.373.587.373.96 0s.267-.48-.48-.48-.853.107-.48.48" fill="#f3cc04"/></g></svg>